<svg width="320" height="320" viewBox="0 0 320 320" fill="none" xmlns="http://www.w3.org/2000/svg">
  <rect width="320" height="320" fill="#FFFDF5"/>
  <rect x="26" y="26" width="268" height="268" fill="#FFD93D" stroke="#000000" stroke-width="8"/>
  <circle cx="160" cy="130" r="60" fill="#FFFDF5" stroke="#000000" stroke-width="8"/>
  <path d="M110 104L132 114L146 94L152 118L176 120L156 134L164 158L144 144L126 160L132 136L110 124L134 122L110 104Z" fill="#FF6B6B" stroke="#000000" stroke-width="6"/>
  <circle cx="186" cy="126" r="18" fill="#C4B5FD" stroke="#000000" stroke-width="8"/>
  <path d="M126 176C138 192 148 198 160 198C172 198 182 192 194 176" stroke="#000000" stroke-width="8" stroke-linecap="square"/>
  <rect x="102" y="204" width="116" height="28" fill="#FFFFFF" stroke="#000000" stroke-width="8"/>
  <rect x="76" y="232" width="168" height="46" fill="#C4B5FD" stroke="#000000" stroke-width="8"/>
  <circle cx="72" cy="76" r="14" fill="#FFFFFF" stroke="#000000" stroke-width="8"/>
  <rect x="226" y="60" width="34" height="34" fill="#FF6B6B" stroke="#000000" stroke-width="8"/>
</svg>
